<svg width="14" height="14" viewBox="0 0 14 14" fill="none" xmlns="http://www.w3.org/2000/svg">
<path d="M12.8333 6.16668H3.525L7.59167 2.10001C7.91667 1.77501 7.91667 1.24168 7.59167 0.916677C7.51457 0.839424 7.423 0.778134 7.32219 0.736316C7.22138 0.694498 7.11331 0.672974 7.00417 0.672974C6.89503 0.672974 6.78696 0.694498 6.68615 0.736316C6.58534 0.778134 6.49376 0.839424 6.41667 0.916677L0.925001 6.40834C0.847748 6.48544 0.786458 6.57701 0.74464 6.67782C0.702822 6.77863 0.681297 6.8867 0.681297 6.99584C0.681297 7.10498 0.702822 7.21305 0.74464 7.31386C0.786458 7.41468 0.847748 7.50625 0.925001 7.58334L6.41667 13.075C6.49382 13.1522 6.58541 13.2134 6.68621 13.2551C6.78702 13.2969 6.89506 13.3184 7.00417 13.3184C7.11328 13.3184 7.22132 13.2969 7.32212 13.2551C7.42292 13.2134 7.51452 13.1522 7.59167 13.075C7.66882 12.9979 7.73002 12.9063 7.77177 12.8055C7.81353 12.7047 7.83502 12.5966 7.83502 12.4875C7.83502 12.3784 7.81353 12.2704 7.77177 12.1696C7.73002 12.0688 7.66882 11.9772 7.59167 11.9L3.525 7.83334H12.8333C13.2917 7.83334 13.6667 7.45834 13.6667 7.00001C13.6667 6.54168 13.2917 6.16668 12.8333 6.16668Z" fill="#323264"/>
</svg>
